<?xml version="1.0" standalone="no"?><!DOCTYPE svg PUBLIC "-//W3C//DTD SVG 1.1//EN" "http://www.w3.org/Graphics/SVG/1.1/DTD/svg11.dtd"><svg t="1578287251509" class="icon" viewBox="0 0 1024 1024" version="1.1" xmlns="http://www.w3.org/2000/svg" p-id="2154" xmlns:xlink="http://www.w3.org/1999/xlink" width="200" height="200"><defs><style type="text/css"></style></defs><path d="M434.538972 1020.281716C197.09883 977.286567 29.269881 780.851057 29.269881 545.572046c0-132.284017 49.819776-251.089397 144.056498-343.392475 43.848228-42.995149 66.142009-56.758147 92.075591-56.758147 37.364832 0 67.905037 31.27954 67.791294 69.326835 0 20.303265-10.350684 34.123134-63.355286 84.739116-70.464272 67.108831-104.871766 147.013837-104.871767 243.411692 0 151.051741 101.231965 287.60115 246.994621 332.984919 53.743937 16.777208 146.956965 16.777208 200.757773 0 53.23209-16.492848 120.568408-59.26051 157.250778-99.810168 33.895647-37.421704 69.042475-103.051866 81.554291-152.132307 10.578172-41.459608 10.5213-121.137127-0.113744-162.198632a362.728918 362.728918 0 0 0-123.923849-189.83837c-43.222637-34.350622-52.606499-56.985634-38.331655-92.416823a65.914521 65.914521 0 0 1 77.91449-38.445398c49.706032 13.25115 137.800591 106.634795 180.852612 191.544528 30.824565 60.796051 43.336381 113.459422 46.066231 194.103762 2.274876 63.980877 0.90995 82.691729-8.758271 122.843284-41.857711 174.027985-168.340796 306.937593-340.150777 357.212344-38.104167 11.203762-63.18467 14.672948-116.41676 16.208489-37.364832 1.137438-79.677519-0.170616-94.122979-2.786723z m44.701306-482.728607c-32.530721-17.573414-32.018874-13.53551-32.018874-261.895056 0-204.454446 0.90995-228.738744 9.270118-242.729228 9.895709-16.606592 36.511754-31.962002 55.506965-31.962003 19.84829 0 46.521206 14.047357 57.611225 30.312718 10.009453 14.672948 10.691915 27.582867 12.170585 234.880908 1.763029 243.525435 1.19431 248.132058-32.416978 268.549067-20.871984 12.568688-49.876648 13.762998-70.123041 2.843594z" p-id="2155"></path></svg>