<?xml version="1.0" standalone="no"?><!DOCTYPE svg PUBLIC "-//W3C//DTD SVG 1.1//EN" "http://www.w3.org/Graphics/SVG/1.1/DTD/svg11.dtd"><svg t="1578133715334" class="icon" viewBox="0 0 1024 1024" version="1.1" xmlns="http://www.w3.org/2000/svg" p-id="1860" xmlns:xlink="http://www.w3.org/1999/xlink" width="200" height="200"><defs><style type="text/css"></style></defs><path d="M704 0 384 0C348.608 0 320 28.672 320 64l0 256c0 35.328 28.608 64 64 64l320 0c35.392 0 64-28.672 64-64L768 64C768 28.672 739.392 0 704 0zM704 192c0 35.328 0 64 0 64L384 256c0 0 0-28.672 0-64L384 128c0-35.328 28.608-64 64-64l192 0c35.392 0 64 28.672 64 64L704 192z" p-id="1861"></path><path d="M704 832 320 832l0-128L0 704l0 256c0 35.392 28.608 64 64 64l896 0c35.392 0 64-28.608 64-64l0-256-320 0L704 832z" p-id="1862"></path><path d="M320 448l384 0 1.344 192L1024 640 1024 320c0-35.392-28.608-64-64-64L64 256C28.608 256 0 284.608 0 320l0 320 320 0L320 448z" p-id="1863"></path><path d="M384 512l256 0 0 256-256 0 0-256Z" p-id="1864"></path></svg>