<?xml version="1.0" standalone="no"?><!DOCTYPE svg PUBLIC "-//W3C//DTD SVG 1.1//EN" "http://www.w3.org/Graphics/SVG/1.1/DTD/svg11.dtd"><svg t="1578383632753" class="icon" viewBox="0 0 1024 1024" version="1.1" xmlns="http://www.w3.org/2000/svg" p-id="4749" xmlns:xlink="http://www.w3.org/1999/xlink" width="200" height="200"><defs><style type="text/css"></style></defs><path d="M391.406518 1024a132.550318 132.550318 0 0 1-132.13376-132.619745V185.707755H207.480705A22.94155 22.94155 0 0 1 184.670294 162.665923v-83.311612a22.933836 22.933836 0 0 1 22.810411-22.995548h110.133324V18.382553A18.313127 18.313127 0 0 1 335.811445 0h352.377264a18.313127 18.313127 0 0 1 18.205131 18.382553v37.97621h110.125609a22.933836 22.933836 0 0 1 22.810411 22.995548v83.311612a23.034118 23.034118 0 0 1-22.810411 23.041832h-51.930905v705.6725a132.465464 132.465464 0 0 1-132.01805 132.619745z m-75.983276-132.619745a76.044989 76.044989 0 0 0 75.983276 75.960134h241.140834a76.006418 76.006418 0 0 0 75.936992-75.936992V185.707755H315.446384z m82.941339 30.138748a42.018366 42.018366 0 0 1-41.794659-42.164933V406.846088a12.396459 12.396459 0 0 1 12.342461-12.442743h286.113676a12.396459 12.396459 0 0 1 12.342461 12.442743v472.507982a42.072364 42.072364 0 0 1-41.933511 42.164933z m-30.293028-572.458775a11.061931 11.061931 0 0 1-11.015647-11.108215v-30.856153a11.100501 11.100501 0 0 1 11.015647-11.154499h287.733624a11.100501 11.100501 0 0 1 11.015647 11.154499v30.686444a10.98479 10.98479 0 0 1-3.178184 7.968602 10.799653 10.799653 0 0 1-7.829749 3.270752z" p-id="4750"></path></svg>