<?xml version="1.0" standalone="no"?><!DOCTYPE svg PUBLIC "-//W3C//DTD SVG 1.1//EN" "http://www.w3.org/Graphics/SVG/1.1/DTD/svg11.dtd"><svg t="1578023812993" class="icon" viewBox="0 0 1024 1024" version="1.1" xmlns="http://www.w3.org/2000/svg" p-id="2566" xmlns:xlink="http://www.w3.org/1999/xlink" width="200" height="200"><defs><style type="text/css"></style></defs><path d="M511.216147 822.451658c-64.72514 0-125.636419-22.897499-171.512259-64.475454-46.227858-41.896202-71.686692-97.702206-71.686692-157.13583 0-50.119491 39.344077-143.140071 116.939339-276.481985 57.169047-98.239442 115.108644-183.470615 115.687836-184.319959 2.382257-3.496637 6.339382-5.590322 10.571776-5.590322s8.18952 2.092661 10.571776 5.590322c0.578168 0.849344 58.518788 86.079494 115.687836 184.319959 77.594239 133.340891 116.938316 226.362494 116.938316 276.481985 0 59.433624-25.458835 115.238604-71.686692 157.13583C636.852566 799.554158 575.941288 822.451658 511.216147 822.451658zM511.216147 170.224939c-19.254529 29.003568-61.954027 94.485955-104.219643 167.123298C332.811922 464.845027 293.600875 555.958164 293.600875 600.840374c0 108.09081 97.622388 196.027605 217.616296 196.027605s217.615273-87.937818 217.615273-196.027605c0-44.88221-39.211047-135.99637-113.39563-263.492136C573.170175 264.711917 530.470677 199.22953 511.216147 170.224939z" p-id="2567" fill="#ffffff"></path><path d="M468.016253 887.252523c-0.023536 0-0.046049 0-0.069585 0-110.267383-0.586354-213.977419-25.289989-292.024983-69.561285-38.341237-21.748327-68.569702-47.107901-89.845261-75.373665-22.549575-29.957289-34.009582-61.800531-34.06484-94.641497 0.110517-45.285393 22.13923-88.090291 65.4742-127.278825 38.150902-34.499745 93.091188-65.60109 158.883637-89.943498 6.625908-2.452865 13.983479 0.933255 16.435321 7.55814 2.451842 6.625908-0.932232 13.983479-7.55814 16.435321-62.766532 23.222911-114.844631 52.589752-150.600997 84.926228-37.764092 34.150798-56.95927 70.591755-57.051367 108.313891 0.045025 27.130917 9.775644 53.810556 28.921703 79.246879 19.155269 25.448602 46.752814 48.498574 82.028225 68.506257 74.302263 42.146912 173.577291 65.667605 279.538601 66.230424 7.063883 0.037862 12.760628 5.794983 12.723789 12.858866C480.768695 881.570103 475.048413 887.252523 468.016253 887.252523z" p-id="2568" fill="#ffffff"></path><path d="M554.416042 887.254569c-7.033184 0-12.752442-5.682419-12.790304-12.723789-0.036839-7.063883 5.658883-12.821003 12.723789-12.858866 105.96131-0.563842 205.236338-24.084535 279.538601-66.231447 35.274388-20.008706 62.871933-43.057655 82.027202-68.506257 19.146059-25.436322 28.876678-52.116985 28.921703-79.299067-0.092098-37.669948-19.287275-74.111928-57.051367-108.262726-35.756365-32.335453-87.834464-61.702294-150.60202-84.926228-6.625908-2.451842-10.008958-9.809413-7.55814-16.435321s9.807367-10.011005 16.436344-7.55814c65.792449 24.342408 120.732735 55.444776 158.883637 89.944522 43.334971 39.188534 65.363683 81.993432 65.4742 127.226636-0.054235 32.894178-11.515265 64.736397-34.063817 94.693686-21.275559 28.266787-51.504024 53.625338-89.846284 75.374688-78.047564 44.270273-181.755554 68.973908-292.02396 69.561285C554.462091 887.254569 554.437531 887.254569 554.416042 887.254569z" p-id="2569" fill="#ffffff"></path></svg>