<?xml version="1.0" standalone="no"?><!DOCTYPE svg PUBLIC "-//W3C//DTD SVG 1.1//EN" "http://www.w3.org/Graphics/SVG/1.1/DTD/svg11.dtd"><svg t="1578560112482" class="icon" viewBox="0 0 1024 1024" version="1.1" xmlns="http://www.w3.org/2000/svg" p-id="5180" xmlns:xlink="http://www.w3.org/1999/xlink" width="200" height="200"><defs><style type="text/css"></style></defs><path d="M555.881414 687.165698 117.411628 687.165698c-20.940885-0.037254-37.979141-17.081552-37.979141-37.978134L79.432487 133.249192c0-20.896582 17.038256-37.94088 38.003306-37.979141l773.88138 0c20.940885 0.038261 37.978134 17.081552 37.978134 37.979141l0 515.937366c0 20.934844-17.044297 37.978134-37.978134 37.978134L788.387861 687.164691c-21.784642 0-39.411917 17.627275-39.411917 39.411917s17.627275 39.411917 39.411917 39.411917l102.929312 0c64.474928-0.058398 116.801968-52.3945 116.801968-116.801968L1008.119141 133.249192c0-64.427605-52.37537-116.801968-116.801968-116.801968L117.411628 16.447223c-64.427605 0-116.801968 52.37537-116.801968 116.801968l0 515.937366c0 64.427605 52.37537 116.801968 116.801968 116.801968l427.788907 0-9.625678-3.986199 224.690115 224.613593c7.478024 7.478024 17.494368 11.544773 27.864124 11.544773 10.369755 0 20.386099-4.066748 27.865131-11.54578 15.403099-15.404106 15.403099-40.328169 0-55.731268L583.74453 698.709464c-7.37633-7.37633-17.325214-11.505505-27.812773-11.544773L555.881414 687.164691zM272.192737 326.009441c-36.024806 0-65.208936 29.18413-65.208936 65.208936s29.18413 65.208936 65.208936 65.208936c36.024806 0 65.208936-29.18413 65.208936-65.208936S308.217543 326.009441 272.192737 326.009441L272.192737 326.009441zM504.364904 326.009441c-36.024806 0-65.208936 29.18413-65.208936 65.208936s29.18413 65.208936 65.208936 65.208936 65.208936-29.18413 65.208936-65.208936S540.38971 326.009441 504.364904 326.009441L504.364904 326.009441zM736.536064 326.009441c-36.024806 0-65.208936 29.18413-65.208936 65.208936s29.18413 65.208936 65.208936 65.208936c36.024806 0 65.208936-29.18413 65.208936-65.208936S772.561877 326.009441 736.536064 326.009441L736.536064 326.009441z" p-id="5181" fill="#ffffff"></path></svg>