<?xml version="1.0" standalone="no"?><!DOCTYPE svg PUBLIC "-//W3C//DTD SVG 1.1//EN" "http://www.w3.org/Graphics/SVG/1.1/DTD/svg11.dtd"><svg t="1578550508866" class="icon" viewBox="0 0 1024 1024" version="1.1" xmlns="http://www.w3.org/2000/svg" p-id="3140" xmlns:xlink="http://www.w3.org/1999/xlink" width="200" height="200"><defs><style type="text/css"></style></defs><path d="M533.134222 450.56c51.882667 13.653333 93.468444 28.216889 124.814222 43.690667 42.894222 20.935111 75.548444 45.966222 97.905778 75.093333 26.851556 35.498667 40.277333 78.734222 40.277334 129.706667 0 55.523556-19.228444 101.034667-57.685334 136.533333-34.019556 31.857778-80.497778 53.703111-139.548444 65.536V1024H431.189333v-122.88c-57.230222-12.743111-103.765333-36.408889-139.548444-70.997333C252.273778 791.893333 230.769778 742.741333 227.242667 682.666667h123.448889c1.763556 36.408889 15.189333 64.625778 40.220444 84.650666 28.672 23.665778 70.257778 35.498667 124.814222 35.498667 54.556444 0 95.232-11.832889 122.083556-35.498667 19.683556-18.204444 29.525333-40.049778 29.525333-65.536 0-30.947556-10.752-56.433778-32.199111-76.458666-26.851556-26.396444-72.021333-47.331556-135.509333-62.805334-84.081778-20.024889-147.171556-47.331556-189.212445-81.92C262.115556 440.547556 238.051556 389.575111 238.051556 327.68c0-52.792889 18.773333-97.848889 56.32-135.168 34.872889-34.588444 80.497778-57.799111 136.874666-69.632V0h167.708445v125.610667c57.230222 13.653333 101.944889 40.96 134.200889 81.92 29.468444 38.229333 45.169778 82.830222 46.933333 133.802666h-123.448889C653.909333 261.233778 606.976 221.184 515.726222 221.184c-46.535111 0-83.228444 9.784889-110.023111 29.354667-26.851556 19.569778-40.277333 45.283556-40.277333 77.141333 0 27.306667 12.515556 50.517333 37.546666 69.632 25.031111 19.114667 68.437333 36.864 130.161778 53.248z" p-id="3141"></path></svg>