<?xml version="1.0" standalone="no"?><!DOCTYPE svg PUBLIC "-//W3C//DTD SVG 1.1//EN" "http://www.w3.org/Graphics/SVG/1.1/DTD/svg11.dtd"><svg t="1578550024417" class="icon" viewBox="0 0 1276 1024" version="1.1" xmlns="http://www.w3.org/2000/svg" p-id="2022" xmlns:xlink="http://www.w3.org/1999/xlink" width="249.21875" height="200"><defs><style type="text/css"></style></defs><path d="M1121.16224 969.53856H156.86656c-41.3952 0-74.94656-33.5616-74.94656-74.94144V250.07104h1039.24224c41.40032 0 74.94144 33.55648 74.94144 74.94656v569.58464c-0.00512 41.39008-33.54112 74.93632-74.94144 74.93632zM121.89184 290.04288v604.55936a34.9696 34.9696 0 0 0 34.97472 34.9696h964.29056a34.9696 34.9696 0 0 0 34.9696-34.9696V325.0176a34.97472 34.97472 0 0 0-34.9696-34.97472H121.89184z" p-id="2023"></path><path d="M1121.16224 984.89856H156.86656c-49.79712 0-90.30656-40.50944-90.30656-90.30144V234.71104h1054.60224c49.792 0 90.30144 40.51456 90.30144 90.30656v569.58464c-0.00512 49.78688-40.51456 90.29632-90.30144 90.29632zM97.28 265.43104v629.1712c0 32.85504 26.73152 59.58144 59.58656 59.58144h964.29056c32.85504 0 59.58144-26.7264 59.58144-59.58144V325.0176c0-32.85504-26.7264-59.58656-59.58144-59.58656H97.28z m1023.88224 679.5008H156.86656c-27.75552 0-50.33472-22.5792-50.33472-50.3296V274.68288h1014.62528c27.7504 0 50.3296 22.5792 50.3296 50.33472v569.58464c0.00512 27.74528-22.5792 50.3296-50.32448 50.3296zM137.25184 305.40288v589.19936a19.6352 19.6352 0 0 0 19.61472 19.6096h964.29056a19.63008 19.63008 0 0 0 19.6096-19.6096V325.0176a19.6352 19.6352 0 0 0-19.6096-19.61472H137.25184z" p-id="2024"></path><path d="M121.89184 335.01184H81.92V151.74656C81.92 110.35136 115.47136 76.8 156.86656 76.8h569.59488c41.37984 0 74.9312 33.55136 74.9312 74.94656v118.31296h-39.96672V151.74656a34.97472 34.97472 0 0 0-34.96448-34.97472H156.86656a34.97984 34.97984 0 0 0-34.97472 34.97472v183.26528z m888.14592 430.88384h-428.48768a19.98848 19.98848 0 1 1 0-39.96672h428.48768a19.98336 19.98336 0 0 1 0 39.96672z" p-id="2025"></path><path d="M1010.03776 781.25568h-428.48768c-19.49184 0-35.34848-15.85664-35.34848-35.34336s15.85664-35.34336 35.34848-35.34336h428.48768c19.48672 0 35.33824 15.85664 35.33824 35.34336a35.08736 35.08736 0 0 1-10.34752 24.99584 35.11296 35.11296 0 0 1-24.99072 10.34752z m-428.48768-39.97184a4.62848 4.62848 0 0 0 0 9.24672h428.48768a4.61312 4.61312 0 0 0 4.62336-4.61312 4.62848 4.62848 0 0 0-4.61824-4.63872h-428.4928z m-444.29824-390.912H66.56V151.74656C66.56 101.95456 107.07456 61.44 156.86656 61.44h569.59488c49.78688 0 90.2912 40.51456 90.2912 90.30656v133.67296h-70.68672V151.74656a19.6352 19.6352 0 0 0-19.60448-19.61472H156.86656a19.64032 19.64032 0 0 0-19.61472 19.61472v198.62528z m-39.97184-30.72h9.25184V151.74656c0-27.75552 22.5792-50.33472 50.33472-50.33472h569.59488c27.7504 0 50.32448 22.5792 50.32448 50.33472v102.95296h9.24672V151.74656c0-32.85504-26.7264-59.58656-59.5712-59.58656H156.86656C124.01152 92.16 97.28 118.89152 97.28 151.74656v167.90528z" p-id="2026"></path></svg>