<?xml version="1.0" standalone="no"?><!DOCTYPE svg PUBLIC "-//W3C//DTD SVG 1.1//EN" "http://www.w3.org/Graphics/SVG/1.1/DTD/svg11.dtd"><svg t="1578383587356" class="icon" viewBox="0 0 1024 1024" version="1.1" xmlns="http://www.w3.org/2000/svg" p-id="3957" xmlns:xlink="http://www.w3.org/1999/xlink" width="200" height="200"><defs><style type="text/css"></style></defs><path d="M119.854545 462.545455h345.018182V123.054545c0-68.363636-54.4-123.054545-119.854545-123.054545H119.854545C54.4 0 0 55.854545 0 123.054545v215.563637C0 406.981818 54.4 462.545455 119.854545 462.545455zM1024 339.490909V123.054545C1024 54.690909 970.763636 0 904.145455 0h-222.254546c-66.618182 0-119.854545 55.854545-119.854545 123.054545V462.545455h342.981818c65.745455 0 118.981818-55.563636 118.981818-123.054546zM681.890909 1024h227.2c66.618182 0 114.618182-55.854545 114.618182-123.054545v-216.727273c0-68.363636-53.236364-123.054545-119.854546-123.054546H561.163636v339.490909c0 67.490909 54.4 123.345455 120.727273 123.345455z m-562.036364 0h225.163637c66.618182 0 119.854545-55.854545 119.854545-123.054545V561.454545H119.854545C54.4 561.454545 0 617.018182 0 684.509091v216.727273c0 66.909091 54.4 122.763636 119.854545 122.763636z" p-id="3958"></path></svg>