<?xml version="1.0" standalone="no"?><!DOCTYPE svg PUBLIC "-//W3C//DTD SVG 1.1//EN" "http://www.w3.org/Graphics/SVG/1.1/DTD/svg11.dtd"><svg t="1578466699199" class="icon" viewBox="0 0 1048 1024" version="1.1" xmlns="http://www.w3.org/2000/svg" p-id="2824" xmlns:xlink="http://www.w3.org/1999/xlink" width="204.6875" height="200"><defs><style type="text/css"></style></defs><path d="M522.789 62C274.27 62 72.8 263.47 72.8 511.979c0 103.301 34.814 198.47 93.343 274.422l33.819-35.21c-49.603-66.83-78.951-149.591-78.951-239.212 0-221.889 179.884-401.767 401.776-401.767 221.884 0 401.767 179.877 401.767 401.767 0 221.896-179.884 401.773-401.767 401.773-80.087 0-154.698-23.436-217.357-63.818l-30.437 37.712c71.064 46.97 156.235 74.318 247.793 74.318 248.516 0 449.986-201.466 449.986-449.986-0.001-248.509-201.471-449.979-449.986-449.979zM329.936 560.201v48.213h176.776v160.708h48.213v-32.144h-0.001l0.001-0.007V608.414h176.779v-48.213H554.925V463.78h176.779v-48.222H589.66L693.167 312.05l-34.726-34.729-127.625 127.611-127.612-127.611-34.733 34.729 103.507 103.508H329.937v48.222h176.776v96.421z" fill="" p-id="2825"></path></svg>