<?xml version="1.0" standalone="no"?><!DOCTYPE svg PUBLIC "-//W3C//DTD SVG 1.1//EN" "http://www.w3.org/Graphics/SVG/1.1/DTD/svg11.dtd"><svg t="1578290574245" class="icon" viewBox="0 0 1024 1024" version="1.1" xmlns="http://www.w3.org/2000/svg" p-id="2892" xmlns:xlink="http://www.w3.org/1999/xlink" width="200" height="200"><defs><style type="text/css"></style></defs><path d="M203.806 865.163c176.428 176.428 463.655 175.262 641.486-2.567 49.933-49.933 85.407-108.614 107.473-170.886 0 0 26.465-34.192-5.232-65.863-18.57-18.57-48.814-18.451-67.527 0.26-28.319 28.295-25.49 56.139-25.49 56.139-17.595 41.015-42.941 79.534-76.466 113.060-140.405 140.429-367.169 141.332-506.431 2.046-139.264-139.287-138.359-366.027 2.045-506.431 103.764-103.764 254.535-130.989 382.432-81.985l-37.306 63.746c-9.726 16.644-9.844 35.452-0.308 51.953 9.509 16.477 25.845 25.798 45.105 25.679l240.721 13.387c19.259-0.095 38.304-8.13 48.030-24.752 9.725-16.62 7.252-36.902-2.258-53.404l-113.609-230.497c-9.535-16.501-31.266-31.694-50.812-26.867-18.711 4.589-30.054 10.794-39.779 27.414l-40.778 69.644c-164.943-69.571-363.411-36.807-498.704 98.462-177.855 177.831-179.020 465.037-2.593 641.463z" p-id="2893"></path></svg>