<?xml version="1.0" standalone="no"?><!DOCTYPE svg PUBLIC "-//W3C//DTD SVG 1.1//EN" "http://www.w3.org/Graphics/SVG/1.1/DTD/svg11.dtd"><svg t="1578565028978" class="icon" viewBox="0 0 1024 1024" version="1.1" xmlns="http://www.w3.org/2000/svg" p-id="5395" xmlns:xlink="http://www.w3.org/1999/xlink" width="200" height="200"><defs><style type="text/css"></style></defs><path d="M597.6 966H129V126h272.1c3.5 28 17 52 36.8 70h-97.8c-7.7 0-14 6.1-14 13.8v0.1c0 7.7 6.3 14.1 14 14.1h341.2c7.7 0 14-6.5 14-14.2v0.1c0-7.7-6.3-13.9-14-13.9h-95.8c19.7-18 33.3-42 36.8-70H836v516.7c0 7.7 6.3 14 14 14s14-6.3 14-14V124.2C864 110 853.1 98 839.8 98H622.4C615.6 43 568.6 0.2 511.7 0.2S407.9 43 401.1 98H126.7c-14.4 0-25.7 12-25.7 26.2V968c0 14.2 11.3 26 25.7 26h470.9c7.7 0 14-6.3 14-14s-6.3-14-14-14zM511.7 28.7c46 0 83.5 37.5 83.5 83.5s-37.5 83.5-83.5 83.5-83.5-37.5-83.5-83.5 37.5-83.5 83.5-83.5z" fill="#ffffff" p-id="5396"></path><path d="M761.4 418H321.6c-7.7 0-14 6.3-14 14s6.3 14 14 14h439.8c7.7 0 14-6.3 14-14s-6.3-14-14-14z" fill="#ffffff" p-id="5397"></path><path d="M218.6 432m-29.5 0a29.5 29.5 0 1 0 59 0 29.5 29.5 0 1 0-59 0Z" fill="#ffffff" p-id="5398"></path><path d="M776 571c0-7.7-6.3-14-14-14H322c-7.7 0-14 6.3-14 14s6.3 14 14 14h440c7.7 0 14-6.3 14-14z" fill="#ffffff" p-id="5399"></path><path d="M218.6 570.9m-29.5 0a29.5 29.5 0 1 0 59 0 29.5 29.5 0 1 0-59 0Z" fill="#ffffff" p-id="5400"></path><path d="M577 710c0-7.7-6.3-14-14-14H322c-7.7 0-14 6.3-14 14s6.3 14 14 14h241c7.7 0 14-6.3 14-14z" fill="#ffffff" p-id="5401"></path><path d="M218.6 709.9m-29.5 0a29.5 29.5 0 1 0 59 0 29.5 29.5 0 1 0-59 0Z" fill="#ffffff" p-id="5402"></path><path d="M321.6 835c-7.7 0-14 6.3-14 14s6.3 14 14 14h205.9c7.7 0 14-6.3 14-14s-6.3-14-14-14H321.6z" fill="#ffffff" p-id="5403"></path><path d="M218.6 848.8m-29.5 0a29.5 29.5 0 1 0 59 0 29.5 29.5 0 1 0-59 0Z" fill="#ffffff" p-id="5404"></path><path d="M753.7 681.9c-93.8 0-170.2 76.3-170.2 170.2s76.3 170.2 170.2 170.2S923.9 945.8 923.9 852s-76.3-170.1-170.2-170.1z m0 312.3c-78.4 0-142.2-63.8-142.2-142.2 0-78.4 63.8-142.2 142.2-142.2S895.9 773.6 895.9 852c0 78.4-63.8 142.2-142.2 142.2zM465 138.1c-5 5.2-4.9 13.6 0.2 18.8l1.7 1.6c2.6 2.6 6 3.9 9.4 3.9 3.4 0 6.8-1.3 9.4-3.9l25.9-25.9 25.9 25.9c2.6 2.6 6 3.9 9.4 3.9s6.8-1.3 9.4-3.9l1.6-1.6c2.5-2.5 3.9-5.8 3.9-9.4s-1.4-6.9-3.9-9.4L532 112.2l26-25.9c2.5-2.5 3.9-5.8 3.9-9.4 0-3.5-1.4-6.9-3.9-9.4l-1.6-1.6c-2.5-2.5-5.8-3.9-9.4-3.9-3.5 0-6.9 1.4-9.4 3.9l-25.9 25.9-25.9-25.9c-2.5-2.5-5.8-3.9-9.4-3.9s-6.9 1.4-9.4 3.9l-1.6 1.6c-5.2 5.2-5.2 13.6 0 18.8l25.7 25.9-26.1 25.9z" fill="#ffffff" p-id="5405"></path><path d="M853.2 922.9L816.3 831l26.4-31.7c10.4-12.4 8.8-30.9-3.6-41.3-6-5-13.6-7.4-21.4-6.7-7.8 0.7-14.9 4.4-19.9 10.3l-27 31.8-93.8-19.7-16.6 0.4-8 15.4 6.9 6.1 69.2 48.7-26.2 31.3-26.3-3c-4.8-0.5-9.5 2.1-11.4 6.5-2 4.5-0.8 9.8 3 13l69.1 58c2.1 1.7 4.6 2.6 7.2 2.6 2.1 0 4.3-0.6 6.1-1.8 4.1-2.7 5.9-7.8 4.5-12.4l-7.4-25.3 26.6-31.4 59.2 59.4 7.5 6.3 14-10.8-1.2-13.8z m-72.4-65.1c-4.3-4.3-11.3-4.3-15.6 0-0.3 0.3-0.6 0.7-0.9 1.1l-37.7 44.7-0.1 0.1-0.1 0.1c-0.2 0.2-0.3 0.4-0.5 0.6-0.1 0.1-0.1 0.2-0.2 0.3-0.1 0.2-0.2 0.4-0.3 0.5-0.1 0.1-0.1 0.2-0.2 0.4l-0.3 0.6c-0.1 0.2-0.1 0.3-0.2 0.5s-0.2 0.5-0.3 0.7c0 0.1-0.1 0.2-0.1 0.4-0.1 0.2-0.1 0.4-0.2 0.6 0 0.1 0 0.2-0.1 0.3 0 0.2-0.1 0.4-0.1 0.7V910.8L708.7 898c0.1 0 0.3-0.1 0.4-0.1h0.2c0.3-0.1 0.7-0.2 1-0.3h0.1c0.3-0.1 0.7-0.2 1-0.4 0.1 0 0.2-0.1 0.3-0.1 0.2-0.1 0.4-0.2 0.7-0.3 0.1-0.1 0.2-0.1 0.3-0.2 0.3-0.2 0.5-0.3 0.8-0.5 0.1-0.1 0.2-0.1 0.2-0.2 0.2-0.2 0.5-0.4 0.7-0.6l0.2-0.2c0.2-0.2 0.4-0.5 0.7-0.7l0.1-0.1 0.1-0.1 37.6-45c0.1-0.1 0.2-0.2 0.3-0.4 0.1-0.1 0.2-0.2 0.3-0.4v-0.1c0.1-0.2 0.2-0.4 0.3-0.5 0.1-0.1 0.2-0.3 0.2-0.4l0.3-0.6c0.1-0.1 0.1-0.3 0.2-0.4 0.1-0.2 0.1-0.4 0.2-0.5 0.1-0.2 0.1-0.3 0.2-0.5s0.1-0.3 0.1-0.5 0.1-0.4 0.1-0.6c0-0.1 0-0.3 0.1-0.5 0-0.2 0.1-0.4 0.1-0.6v-0.4-0.6-0.5-0.6c0-0.2 0-0.3-0.1-0.5 0-0.2 0-0.4-0.1-0.5 0-0.2-0.1-0.4-0.1-0.6 0-0.2-0.1-0.3-0.1-0.5-0.1-0.2-0.1-0.4-0.2-0.6 0-0.1-0.1-0.3-0.1-0.4-0.1-0.2-0.2-0.4-0.2-0.5-0.1-0.1-0.1-0.3-0.2-0.4-0.1-0.2-0.2-0.3-0.3-0.5-0.1-0.1-0.2-0.3-0.3-0.4-0.1-0.1-0.2-0.3-0.3-0.4-0.1-0.2-0.2-0.3-0.3-0.5-0.1-0.1-0.2-0.2-0.3-0.4-0.1-0.2-0.3-0.3-0.4-0.5l-0.3-0.3c-0.2-0.1-0.3-0.3-0.5-0.4l-0.1-0.1c-0.1-0.1-0.3-0.2-0.4-0.3-0.1-0.1-0.2-0.2-0.4-0.3l-43.4-30.5 71.6 15.1 35.5-41.9c1.2-1.5 3-2.4 5-2.6 2-0.2 3.9 0.4 5.3 1.7 3 2.6 3.5 7.3 0.9 10.4L791 827.1l27.6 68.7-37.8-38zM681.3 290c7.7 0 14-6.3 14-14s-6.3-14-14-14H340.1c-7.7 0-14 6.3-14 14s6.3 14 14 14h341.2z" fill="#ffffff" p-id="5406"></path></svg>