<?xml version="1.0" standalone="no"?><!DOCTYPE svg PUBLIC "-//W3C//DTD SVG 1.1//EN" "http://www.w3.org/Graphics/SVG/1.1/DTD/svg11.dtd"><svg t="1578304707462" class="icon" viewBox="0 0 1024 1024" version="1.1" xmlns="http://www.w3.org/2000/svg" p-id="3794" xmlns:xlink="http://www.w3.org/1999/xlink" width="200" height="200"><defs><style type="text/css"></style></defs><path d="M921.6 358.4l-97.28-204.8H199.68L107.52 358.4H102.4c0 87.04 61.44 153.6 133.12 153.6 35.84 0 71.68-20.48 97.28-51.2l40.96-51.2 40.96 51.2c25.6 30.72 61.44 51.2 97.28 51.2s71.68-20.48 97.28-51.2l40.96-51.2 40.96 51.2c25.6 30.72 61.44 51.2 97.28 51.2 71.68 0 133.12-66.56 133.12-153.6z m-506.88 168.96h-10.24l-30.72-30.72-30.72 30.72h-10.24s0 5.12 5.12 5.12c-30.72 20.48-66.56 30.72-102.4 30.72C133.12 563.2 51.2 471.04 51.2 358.4c0-15.36 0-35.84 5.12-51.2h15.36l92.16-204.8h691.2l92.16 204.8h15.36c10.24 15.36 10.24 35.84 10.24 51.2 0 112.64-81.92 204.8-184.32 204.8-35.84 0-71.68-10.24-102.4-35.84l5.12-5.12h-10.24l-30.72-30.72-30.72 30.72h-10.24s0 5.12 5.12 5.12c-30.72 20.48-61.44 35.84-102.4 35.84s-71.68-10.24-97.28-35.84c-5.12 0 0 0 0 0z" p-id="3795"></path><path d="M844.8 563.2h51.2v230.4c0 81.92-66.56 153.6-143.36 153.6H271.36c-81.92 0-143.36-71.68-143.36-153.6V563.2h51.2v230.4c0 56.32 40.96 102.4 92.16 102.4h476.16c51.2 0 92.16-46.08 92.16-102.4V563.2z" p-id="3796"></path></svg>