<?xml version="1.0" standalone="no"?><!DOCTYPE svg PUBLIC "-//W3C//DTD SVG 1.1//EN" "http://www.w3.org/Graphics/SVG/1.1/DTD/svg11.dtd"><svg t="1578465176259" class="icon" viewBox="0 0 1024 1024" version="1.1" xmlns="http://www.w3.org/2000/svg" p-id="1771" xmlns:xlink="http://www.w3.org/1999/xlink" width="200" height="200"><defs><style type="text/css"></style></defs><path d="M999.936 401.92c0-31.232-25.6-56.832-56.832-56.832H219.136c-31.232 0-56.832 25.6-56.832 56.832v107.52h837.632V401.92zM162.304 582.656v293.888c0 31.232 25.6 56.832 56.832 56.832h724.48c31.232 0 56.832-25.6 56.832-56.832V582.656H162.304z m269.824 284.672H249.856v-54.272h182.272v54.272zM581.12 763.392H249.856V709.12H581.12v54.272z" p-id="1772"></path><path d="M178.176 769.536h-65.024c-53.248 0-96.768-43.52-96.768-96.768V210.944c0-53.248 43.52-96.768 96.768-96.768H824.32c53.248 0 96.768 43.52 96.768 96.768v216.064h-66.56V210.944c0-16.384-13.312-30.208-30.208-30.208H113.152c-16.384 0-30.208 13.312-30.208 30.208v461.824c0 16.384 13.312 30.208 30.208 30.208h64.512v66.56z" p-id="1773"></path></svg>